<svg width="24" height="24" viewBox="0 0 24 24" fill="none" xmlns="http://www.w3.org/2000/svg">
<path d="M7.99834 1.99581H16.0017" stroke="#333333" stroke-width="1.5" stroke-linecap="round" stroke-linejoin="round"/>
<path d="M18.0025 22.0042L15.9236 18.8859" stroke="#333333" stroke-width="1.5" stroke-linecap="round" stroke-linejoin="round"/>
<path d="M8.07636 18.8859L5.9975 22.0042" stroke="#333333" stroke-width="1.5" stroke-linecap="round" stroke-linejoin="round"/>
<path d="M12 4.99704V1.99579" stroke="#333333" stroke-width="1.5" stroke-linecap="round" stroke-linejoin="round"/>
<path fill-rule="evenodd" clip-rule="evenodd" d="M15.0013 19.0029H8.99875C6.78883 19.0029 4.99709 17.2112 4.99709 15.0012V7.99832C4.99709 6.34063 6.34065 4.99707 7.99834 4.99707H16.0017C17.6594 4.99707 19.0029 6.34063 19.0029 7.99832V15.0012C19.0029 17.2112 17.2112 19.0029 15.0013 19.0029Z" stroke="#333333" stroke-width="1.5" stroke-linecap="round" stroke-linejoin="round"/>
<path d="M14.0008 22.0042H9.99918" stroke="#333333" stroke-width="1.5" stroke-linecap="round" stroke-linejoin="round"/>
<path d="M19.0029 12H4.99709" stroke="#333333" stroke-width="1.5" stroke-linecap="round" stroke-linejoin="round"/>
<path d="M15.6245 15.0012C15.4174 15.0012 15.2494 15.1693 15.2514 15.3764C15.2514 15.5835 15.4194 15.7515 15.6265 15.7515C15.8336 15.7515 16.0017 15.5835 16.0017 15.3764C16.0017 15.1693 15.8336 15.0012 15.6245 15.0012" stroke="#333333" stroke-width="1.5" stroke-linecap="round" stroke-linejoin="round"/>
<path d="M8.37149 15.0012C8.16441 15.0012 7.99634 15.1693 7.99834 15.3764C7.99834 15.5835 8.16641 15.7515 8.37348 15.7515C8.58058 15.7515 8.74865 15.5835 8.74865 15.3764C8.74865 15.1693 8.58058 15.0012 8.37149 15.0012" stroke="#333333" stroke-width="1.5" stroke-linecap="round" stroke-linejoin="round"/>
</svg>